<svg viewBox="0 0 22 22" xmlns="http://www.w3.org/2000/svg" xmlns:xlink="http://www.w3.org/1999/xlink" width="22.000000" height="22.000000" fill="none" customFrame="#000000">
	<g id="Group 2">
		<path id="Vector" d="M20.54 14L16 14C15.4696 14 14.9609 14.2107 14.5858 14.5858C14.2107 14.9609 14 15.4696 14 16L14 20.54" fill-rule="nonzero" stroke="rgb(216,174,94)" stroke-linecap="round" stroke-linejoin="round" stroke-width="2" />
		<path id="Vector" d="M6 2.33984L6 3.99984C6 4.79549 6.31607 5.55855 6.87868 6.12116C7.44129 6.68377 8.20435 6.99984 9 6.99984C9.53043 6.99984 10.0391 7.21056 10.4142 7.58563C10.7893 7.9607 11 8.46941 11 8.99984C11 10.0998 11.9 10.9998 13 10.9998C13.5304 10.9998 14.0391 10.7891 14.4142 10.4141C14.7893 10.039 15 9.53028 15 8.99984C15 7.89984 15.9 6.99984 17 6.99984L20.17 6.99984" fill-rule="nonzero" stroke="rgb(216,174,94)" stroke-linecap="round" stroke-linejoin="round" stroke-width="2" />
		<path id="Vector" d="M9.99999 20.95L9.99999 17C9.99999 16.4696 9.78927 15.9609 9.4142 15.5858C9.03913 15.2107 8.53042 15 7.99999 15C7.46955 15 6.96085 14.7893 6.58577 14.4142C6.2107 14.0391 5.99999 13.5304 5.99999 13L5.99999 12C5.99999 11.4696 5.78927 10.9609 5.4142 10.5858C5.03913 10.2107 4.53042 10 3.99999 10L1.04999 10" fill-rule="nonzero" stroke="rgb(216,174,94)" stroke-linecap="round" stroke-linejoin="round" stroke-width="2" />
		<path id="Vector" d="M11 21C5.47715 21 1 16.5228 1 11C1 5.47715 5.47715 1 11 1C16.5228 1 21 5.47715 21 11C21 16.5228 16.5228 21 11 21Z" stroke="rgb(216,174,94)" stroke-linecap="round" stroke-linejoin="round" stroke-width="2" />
	</g>
</svg>
