<svg viewBox="0 0 217 114" xmlns="http://www.w3.org/2000/svg" xmlns:xlink="http://www.w3.org/1999/xlink" width="217.000000" height="114.000000" fill="none">
	<defs>
		<filter id="pixso_custom_mask_type_outline">
			<feColorMatrix type="matrix" values="0 0 0 0 1 0 0 0 0 1 0 0 0 0 1 0 0 0 1 0 " />
		</filter>
	</defs>
	<mask id="mask_2" width="60.789463" height="60.801998" x="78.161743" y="0.811035" maskUnits="userSpaceOnUse">
		<g filter="url(#pixso_custom_mask_type_outline)">
			<g id="Text input">
				<path id="Vector" d="M78.1617 0.811035L138.951 0.811035L138.951 61.613L78.1617 61.613L78.1617 0.811035Z" fill="rgb(255,255,255)" fill-rule="nonzero" />
			</g>
		</g>
	</mask>
	<rect id="Logo" width="217.000000" height="114.000000" x="0.000000" y="0.000000" fill="rgb(255,255,255)" fill-opacity="0" />
	<g id="Switch container" mask="url(#mask_2)">
		<g id="Switch">
			<path id="Vector" d="M123.284 54.9534L114.63 44.3526C114.592 44.3055 114.555 44.2554 114.52 44.2209L109.547 38.1288L113.764 32.9616L128.388 50.8805C126.858 52.4231 125.143 53.787 123.284 54.9534ZM103.991 58.7818L108.017 53.8466L112.15 58.9166C110.971 59.0733 109.767 59.158 108.538 59.158C106.995 59.158 105.474 59.0232 103.991 58.7818ZM101.329 58.2111C99.1659 57.6279 97.0997 56.8002 95.1808 55.7435L107.992 40.0508L112.074 45.0455L101.329 58.2111ZM121.133 56.1574C119.173 57.1388 117.085 57.907 114.909 58.418L109.607 51.9121L113.645 46.9675L121.133 56.1574ZM88.6999 50.868L108.55 26.5559L112.209 31.0302L93.0769 54.4674C91.4967 53.4202 90.0387 52.2068 88.6999 50.868ZM108.55 3.24412C123.563 3.24412 135.841 15.1305 136.471 29.9861L131.73 29.9861C131.062 17.9743 121.082 8.33604 108.952 8.26392C108.905 8.26392 108.854 8.26392 108.817 8.26392C102.778 8.26392 97.0652 10.6343 92.7132 14.9361C88.6027 19.009 86.2072 24.3078 85.8937 29.9861L80.6293 29.9861C81.2627 15.1305 93.5378 3.24412 108.55 3.24412ZM131.621 46.9675C131.122 47.6824 130.602 48.3878 130.04 49.0557L128.341 46.9675L131.621 46.9675ZM135.098 39.9661C134.577 41.5558 133.919 43.0765 133.129 44.5344L126.372 44.5344L122.638 39.9661L135.098 39.9661ZM130.551 32.416L136.471 32.416C136.399 34.1656 136.158 35.8807 135.766 37.533L120.647 37.533L116.477 32.416L130.551 32.416ZM102.618 29.9861L95.6041 29.9861C96.5541 23.6525 101.963 18.7895 108.428 18.6923C108.491 18.6923 108.563 18.6923 108.622 18.6923C115.103 18.6923 120.694 23.6149 121.653 29.9861L114.47 29.9861L109.475 23.872C109.014 23.2982 108.052 23.2982 107.591 23.872L102.618 29.9861ZM124.111 29.9861C123.114 22.204 116.282 16.1652 108.393 16.2624C100.602 16.3846 94.1336 22.3263 93.1616 29.9861L88.3362 29.9861C88.6528 24.9632 90.7787 20.2726 94.4251 16.6762C98.3162 12.8228 103.421 10.6939 108.817 10.6939C108.854 10.6939 108.905 10.6939 108.939 10.6939C119.734 10.7566 128.633 19.3006 129.3 29.9861L124.111 29.9861ZM96.4444 37.5456C96.3942 37.533 96.3472 37.533 96.297 37.533L81.3222 37.533C80.9334 35.8807 80.7014 34.1656 80.6168 32.416L100.624 32.416L96.4444 37.5456ZM90.7442 44.5344L83.9842 44.5344C83.1941 43.089 82.5388 41.5558 82.0152 39.9661L94.4753 39.9661L90.7442 44.5344ZM85.4798 46.9675L88.7626 46.9675L87.0601 49.0557C86.502 48.3753 85.9658 47.6824 85.4798 46.9675ZM134.794 46.5035C134.869 46.4063 134.941 46.2965 134.988 46.1774C136.23 44.0014 137.202 41.653 137.882 39.1854C137.907 39.1133 137.929 39.0412 137.942 38.9691C138.6 36.4889 138.951 33.8865 138.951 31.1995C138.939 14.4376 125.312 0.811035 108.55 0.811035C91.7883 0.811035 78.1617 14.4376 78.1617 31.1995C78.1617 33.8865 78.5129 36.4764 79.1713 38.9565C79.1839 39.0537 79.209 39.1384 79.2435 39.223C79.9113 41.6781 80.8833 44.0108 82.1249 46.1774C82.1719 46.2965 82.2346 46.4063 82.3193 46.5035C83.401 48.3534 84.6646 50.0778 86.1006 51.6581C86.1602 51.7427 86.2323 51.8274 86.317 51.8901C86.3295 51.8901 86.3295 51.9026 86.342 51.9026C88.1794 53.8717 90.2582 55.5836 92.5408 57.0196C92.5533 57.0322 92.5533 57.0322 92.5658 57.0447C92.5909 57.0667 92.6286 57.0792 92.663 57.1043C95.325 58.7441 98.2566 59.9858 101.367 60.7383C101.392 60.7508 101.414 60.7508 101.452 60.7633C103.737 61.3089 106.12 61.613 108.563 61.613C113.996 61.613 119.101 60.1676 123.525 57.6624C123.622 57.6279 123.71 57.5778 123.795 57.5182C123.795 57.5182 123.795 57.5056 123.807 57.5056C126.394 55.9975 128.752 54.1131 130.783 51.9371C130.796 51.9246 130.796 51.9246 130.809 51.9246C130.893 51.8525 130.965 51.7804 131.025 51.6957C132.448 50.0778 133.712 48.3534 134.794 46.5035Z" fill="rgb(216,174,94)" fill-rule="nonzero" />
		</g>
	</g>
	<path id="Vector" d="M1.48511 99.5356L215.797 99.5356" stroke="rgb(9,9,9)" stroke-linecap="round" stroke-width="2.00131035" />
	<g id="Slider container">
		<g id="Slider container">
			<g id="Slider">
				<path id="Vector" d="M23.1127 90.9338L23.6896 90.9338C24.1317 90.9338 24.4828 90.7958 24.7431 90.5199C25.0002 90.244 25.1319 89.8552 25.1319 89.3535L25.1319 77.2132C25.1319 76.9216 25.0347 76.6802 24.8434 76.4858C24.649 76.2945 24.4107 76.1973 24.1285 76.1973L23.1127 76.1973L23.1127 75.4824L28.029 75.4824L33.5223 87.0333L38.7145 75.4824L43.4803 75.4824L43.4803 76.1973L41.6116 76.1973L41.6116 90.9338L43.4803 90.9338L43.4803 91.6612L36.9838 91.6612L36.9838 90.9338L37.9996 90.9338C38.2818 90.9338 38.5201 90.8397 38.7145 90.6453C38.9058 90.454 39.003 90.2157 39.003 89.9304L39.003 76.7742L32.9328 90.0684L32.2179 90.0684L25.8593 76.7742L25.8593 90.9338L27.8785 90.9338L27.8785 91.6612L23.1127 91.6612L23.1127 90.9338Z" fill="rgb(9,9,9)" fill-rule="nonzero" />
			</g>
		</g>
	</g>
	<g id="Slider container">
		<g id="Slider container">
			<g id="Slider">
				<path id="Vector" d="M45.2177 90.9338L46.2335 90.9338C46.5157 90.9338 46.754 90.8397 46.9484 90.6453C47.1397 90.454 47.2369 90.2157 47.2369 89.9304L47.2369 77.2132C47.2369 76.9216 47.1397 76.6802 46.9484 76.4858C46.754 76.2945 46.5157 76.1973 46.2335 76.1973L45.2177 76.1973L45.2177 75.4824L51.7268 75.4824L51.7268 76.1973L49.8455 76.1973L49.8455 90.9338L51.7268 90.9338L51.7268 91.6612L45.2177 91.6612L45.2177 90.9338Z" fill="rgb(9,9,9)" fill-rule="nonzero" />
			</g>
		</g>
	</g>
	<g id="Vertical container">
		<g id="Vertical container">
			<g id="Vertical container">
				<path id="Vector" d="M62.2699 92.0999C61.0721 92.0999 59.9653 91.8867 58.9463 91.4602C57.9242 91.0338 57.04 90.4412 56.2875 89.6793C55.535 88.9206 54.9455 88.0207 54.5191 86.9829C54.099 85.9388 53.892 84.8006 53.892 83.5715C53.892 82.3362 54.099 81.198 54.5191 80.1602C54.9455 79.1255 55.535 78.2256 56.2875 77.4637C57.04 76.705 57.9242 76.1092 58.9463 75.6828C59.9653 75.2564 61.0721 75.0432 62.2699 75.0432C63.4645 75.0432 64.5713 75.2564 65.5934 75.6828C66.6124 76.1092 67.4997 76.705 68.2522 77.4637C69.0047 78.2256 69.5879 79.1255 70.0081 80.1602C70.4345 81.198 70.6477 82.3362 70.6477 83.5715C70.6477 84.8006 70.4345 85.9388 70.0081 86.9829C69.5879 88.0207 69.0047 88.9206 68.2522 89.6793C67.4997 90.4412 66.6124 91.0338 65.5934 91.4602C64.5713 91.8867 63.4645 92.0999 62.2699 92.0999ZM62.2699 91.5104C62.9785 91.5104 63.6777 91.3442 64.3643 91.0087C65.0478 90.6764 65.6498 90.1747 66.1703 89.5037C66.6877 88.8265 67.1047 87.9987 67.4245 87.0205C67.7412 86.036 67.9011 84.8853 67.9011 83.5715C67.9011 82.286 67.7412 81.1447 67.4245 80.1477C67.1047 79.1537 66.6877 78.3228 66.1703 77.6519C65.6498 76.9746 65.0478 76.4698 64.3643 76.1343C63.6777 75.7926 62.9785 75.6201 62.2699 75.6201C61.533 75.6201 60.8276 75.7926 60.1503 76.1343C59.4793 76.4698 58.8867 76.9746 58.3694 77.6519C57.8489 78.3228 57.4319 79.1537 57.1152 80.1477C56.7954 81.1447 56.6387 82.286 56.6387 83.5715C56.6387 84.8853 56.7954 86.036 57.1152 87.0205C57.4319 87.9987 57.8489 88.8265 58.3694 89.5037C58.8867 90.1747 59.4793 90.6764 60.1503 91.0087C60.8276 91.3442 61.533 91.5104 62.2699 91.5104ZM60.3886 73.3125L65.1544 69.1235L66.5967 69.9889L60.8276 73.463L60.3886 73.3125Z" fill="rgb(9,9,9)" fill-rule="nonzero" />
			</g>
		</g>
	</g>
	<g id="Slider container">
		<g id="Slider container">
			<g id="Slider">
				<path id="Vector" d="M72.8134 90.9338L73.8293 90.9338C74.1115 90.9338 74.3498 90.8397 74.5442 90.6453C74.7354 90.454 74.8326 90.2157 74.8326 89.9304L74.8326 77.2132C74.8326 76.9216 74.7354 76.6802 74.5442 76.4858C74.3498 76.2945 74.1115 76.1973 73.8293 76.1973L72.8134 76.1973L72.8134 75.4824L80.3259 75.4824C81.58 75.4824 82.7213 75.68 83.7497 76.0719C84.7782 76.4669 85.6592 77.0219 86.396 77.7399C87.1297 78.4517 87.7004 79.3045 88.1017 80.2984C88.503 81.2861 88.7037 82.3772 88.7037 83.5718C88.7037 84.7695 88.5062 85.8638 88.1143 86.8577C87.7192 87.8454 87.1548 88.6982 86.4211 89.4162C85.6937 90.128 84.8095 90.6798 83.7748 91.0717C82.7464 91.4668 81.5957 91.6612 80.3259 91.6612L72.8134 91.6612L72.8134 90.9338ZM80.1879 90.9338C80.9718 90.9338 81.718 90.777 82.4203 90.4572C83.1227 90.1405 83.7309 89.6733 84.2514 89.0525C84.7782 88.4254 85.192 87.6572 85.493 86.7448C85.8003 85.8262 85.9571 84.7695 85.9571 83.5718C85.9571 82.3772 85.8003 81.3237 85.493 80.4113C85.192 79.4926 84.7782 78.7182 84.2514 78.0911C83.7309 77.464 83.1227 76.9937 82.4203 76.6739C81.718 76.3572 80.9718 76.1973 80.1879 76.1973L77.4413 76.1973L77.4413 90.9338L80.1879 90.9338Z" fill="rgb(9,9,9)" fill-rule="nonzero" />
			</g>
		</g>
	</g>
	<g id="Slider container">
		<g id="Slider container">
			<g id="Slider">
				<path id="Vector" d="M99.2538 90.9338L99.8307 90.9338C100.273 90.9338 100.624 90.7958 100.884 90.5199C101.141 90.244 101.273 89.8552 101.273 89.3535L101.273 77.2132C101.273 76.9216 101.176 76.6802 100.985 76.4858C100.79 76.2945 100.552 76.1973 100.27 76.1973L99.2538 76.1973L99.2538 75.4824L104.17 75.4824L109.663 87.0333L114.856 75.4824L119.621 75.4824L119.621 76.1973L117.753 76.1973L117.753 90.9338L119.621 90.9338L119.621 91.6612L113.125 91.6612L113.125 90.9338L114.141 90.9338C114.423 90.9338 114.661 90.8397 114.856 90.6453C115.047 90.454 115.144 90.2157 115.144 89.9304L115.144 76.7742L109.074 90.0684L108.359 90.0684L102 76.7742L102 90.9338L104.02 90.9338L104.02 91.6612L99.2538 91.6612L99.2538 90.9338Z" fill="rgb(9,9,9)" fill-rule="nonzero" />
			</g>
		</g>
	</g>
	<g id="Slider container">
		<g id="Slider container">
			<g id="Slider">
				<path id="Vector" d="M120.054 90.9337L120.644 90.9337C121.221 90.9337 121.654 90.8083 121.948 90.5575C122.249 90.3067 122.466 90.0025 122.6 89.642L128.006 75.0435L128.733 75.0435L134.653 89.9304C134.769 90.2157 134.923 90.454 135.117 90.6453C135.308 90.8397 135.587 90.9337 135.957 90.9337L137.111 90.9337L137.111 91.6612L130.752 91.6612L130.752 90.9337L132.345 90.9337L130.602 86.6069L124.419 86.6069L122.801 90.9337L124.682 90.9337L124.682 91.6612L120.054 91.6612L120.054 90.9337ZM130.401 86.03L127.429 78.5175L124.657 86.03L130.401 86.03Z" fill="rgb(9,9,9)" fill-rule="nonzero" />
			</g>
		</g>
	</g>
	<g id="Slider container">
		<g id="Slider container">
			<g id="Slider">
				<path id="Vector" d="M137.541 90.9338L138.556 90.9338C138.839 90.9338 139.077 90.8397 139.271 90.6453C139.463 90.454 139.56 90.2157 139.56 89.9304L139.56 77.2132C139.56 76.9216 139.463 76.6802 139.271 76.4858C139.077 76.2945 138.839 76.1973 138.556 76.1973L137.541 76.1973L137.541 75.4824L144.05 75.4824L144.05 76.1973L142.168 76.1973L142.168 90.9338L145.492 90.9338C146.778 90.9338 147.718 90.7017 148.314 90.2314C148.916 89.7642 149.32 89.087 149.53 88.1997L149.819 87.0333L150.396 87.0333L150.396 91.6612L137.541 91.6612L137.541 90.9338Z" fill="rgb(9,9,9)" fill-rule="nonzero" />
			</g>
		</g>
	</g>
	<g id="Slider container">
		<g id="Slider container">
			<g id="Slider">
				<path id="Vector" d="M152.422 90.9338L153.438 90.9338C153.72 90.9338 153.958 90.8397 154.153 90.6453C154.344 90.454 154.441 90.2157 154.441 89.9304L154.441 77.2132C154.441 76.9216 154.344 76.6802 154.153 76.4858C153.958 76.2945 153.72 76.1973 153.438 76.1973L152.422 76.1973L152.422 75.4824L158.931 75.4824L158.931 76.1973L157.05 76.1973L157.05 90.9338L158.931 90.9338L158.931 91.6612L152.422 91.6612L152.422 90.9338Z" fill="rgb(9,9,9)" fill-rule="nonzero" />
			</g>
		</g>
	</g>
	<g id="Slider container">
		<g id="Slider container">
			<g id="Slider">
				<path id="Vector" d="M163.266 78.0785L163.266 90.9338L165.135 90.9338L165.135 91.6612L160.369 91.6612L160.369 90.9338L161.096 90.9338C162.056 90.9338 162.539 90.4258 162.539 89.4037L162.539 77.2132C162.539 76.9216 162.442 76.6802 162.25 76.4858C162.056 76.2945 161.814 76.1973 161.523 76.1973L160.369 76.1973L160.369 75.4824L164.621 75.4824L174.817 87.6102L174.817 76.1973L172.798 76.1973L172.798 75.4824L177.714 75.4824L177.714 76.1973L176.987 76.1973C176.542 76.1973 176.19 76.3415 175.933 76.6237C175.673 76.8996 175.544 77.2884 175.544 77.7901L175.544 91.9496L174.968 91.9496L163.266 78.0785Z" fill="rgb(9,9,9)" fill-rule="nonzero" />
			</g>
		</g>
	</g>
	<g id="Slider container">
		<g id="Slider container">
			<g id="Slider">
				<path id="Vector" d="M177.847 90.9337L178.436 90.9337C179.013 90.9337 179.446 90.8083 179.74 90.5575C180.041 90.3067 180.258 90.0025 180.393 89.642L185.798 75.0435L186.525 75.0435L192.445 89.9304C192.561 90.2157 192.715 90.454 192.909 90.6453C193.1 90.8397 193.379 90.9337 193.749 90.9337L194.903 90.9337L194.903 91.6612L188.545 91.6612L188.545 90.9337L190.137 90.9337L188.394 86.6069L182.211 86.6069L180.593 90.9337L182.474 90.9337L182.474 91.6612L177.847 91.6612L177.847 90.9337ZM188.193 86.03L185.221 78.5175L182.449 86.03L188.193 86.03Z" fill="rgb(9,9,9)" fill-rule="nonzero" />
			</g>
		</g>
	</g>
	<g id="Container">
		<g id="Container">
			<g id="Container">
				<path id="Vector" d="M76.5818 113.442C77.7639 113.442 78.9867 112.138 78.9867 110.464C78.9867 108.793 77.7639 107.488 76.5818 107.488C75.3966 107.488 74.1738 108.793 74.1738 110.464C74.1738 112.138 75.3966 113.442 76.5818 113.442ZM76.5818 113.157C75.4374 113.157 75.1521 111.853 75.1521 110.464C75.1521 109.078 75.4374 107.774 76.5818 107.774C77.7231 107.774 78.0084 109.078 78.0084 110.464C78.0084 111.853 77.7231 113.157 76.5818 113.157Z" fill="rgb(9,9,9)" fill-rule="nonzero" />
			</g>
		</g>
	</g>
	<g id="Rating container">
		<g id="Rating container">
			<g id="Rating">
				<path id="Vector" d="M82.8208 113.442C83.8868 113.442 84.4983 112.75 84.4983 111.828C84.4983 111.094 84.1157 110.498 83.1375 110.097L82.639 109.893C81.7015 109.511 81.2688 109.307 81.2688 108.67C81.2688 108.172 81.6858 107.774 82.338 107.774C83.1688 107.774 83.5858 108.354 83.8649 109.031C83.9935 109.357 84.0091 109.567 84.1314 109.567C84.2129 109.567 84.2474 109.501 84.2474 109.429C84.2223 108.67 84.2474 108.278 84.2474 107.683C84.2474 107.57 84.2317 107.529 84.1408 107.529C84.075 107.529 84.0499 107.56 84.0091 107.626C83.9213 107.764 83.8053 108.002 83.7019 108.002C83.5357 108.002 83.2692 107.488 82.3693 107.488C81.4255 107.488 80.7891 108.15 80.7796 108.949C80.7734 109.862 81.3911 110.382 82.2 110.718L83.0466 111.069C83.683 111.329 83.9684 111.63 83.9684 112.144C83.9684 112.756 83.5451 113.157 82.8616 113.157C81.8645 113.157 81.3597 112.367 81.1057 111.216C81.065 111.028 81.0493 110.947 80.9364 110.947C80.8612 110.947 80.8204 111.003 80.8204 111.085C80.8455 111.828 80.8361 112.414 80.8204 113.248C80.8204 113.361 80.8455 113.402 80.927 113.402C81.1057 113.402 81.1308 112.797 81.3189 112.797C81.4067 112.797 81.4977 112.922 81.6764 113.06C81.9304 113.239 82.2658 113.442 82.8208 113.442Z" fill="rgb(9,9,9)" fill-rule="nonzero" />
			</g>
		</g>
	</g>
	<g id="Rating container">
		<g id="Rating container">
			<g id="Rating">
				<path id="Vector" d="M85.9179 113.361C86.1217 113.361 86.36 113.32 86.8146 113.32L86.9212 113.32C87.2567 113.32 87.542 113.361 87.6956 113.361C87.7928 113.361 87.8587 113.311 87.8587 113.182C87.8587 113.051 87.7928 113.003 87.6956 113.003C87.5734 113.003 87.4605 113.035 87.3288 113.035C87.0999 113.035 87.0121 112.944 87.0121 112.815C87.0121 112.765 87.0278 112.709 87.0529 112.633L87.426 111.549C87.4856 111.395 87.589 111.323 87.7521 111.323L88.8777 111.323C89.0407 111.323 89.1473 111.395 89.2038 111.549L89.58 112.627C89.671 112.897 89.533 113.035 89.3104 113.035C89.1818 113.035 89.0407 113.003 88.9185 113.003C88.8213 113.003 88.7554 113.051 88.7554 113.182C88.7554 113.311 88.8213 113.361 88.9185 113.361C89.1223 113.361 89.2477 113.32 89.7431 113.32L90.3482 113.32C90.8028 113.32 90.9596 113.361 91.1634 113.361C91.2606 113.361 91.3265 113.311 91.3265 113.182C91.3265 113.051 91.2606 113.003 91.1634 113.003C91.0411 113.003 90.9659 113.035 90.8624 113.035C90.6492 113.035 90.5363 112.887 90.4705 112.709L89.1411 108.849C89.0094 108.457 88.8777 108.075 88.7648 107.683C88.7241 107.545 88.6519 107.488 88.561 107.488C88.4638 107.488 88.4074 107.57 88.3572 107.723C88.2255 108.15 88.1377 108.41 87.9496 108.956L86.7174 112.602C86.6202 112.903 86.4477 113.035 86.2534 113.035C86.0715 113.035 86.0401 113.003 85.9179 113.003C85.8207 113.003 85.7548 113.051 85.7548 113.182C85.7548 113.311 85.8207 113.361 85.9179 113.361ZM87.8022 111.038C87.6392 111.038 87.6141 110.997 87.6643 110.84L88.1848 109.282C88.2099 109.21 88.2443 109.159 88.2914 109.159C88.3572 109.159 88.398 109.21 88.4231 109.291L88.9592 110.84C89.0188 110.997 88.9843 111.038 88.8213 111.038L87.8022 111.038Z" fill="rgb(9,9,9)" fill-rule="nonzero" />
			</g>
		</g>
	</g>
	<g id="Container">
		<g id="Container">
			<g id="Container">
				<path id="Vector" d="M92.6297 113.361C92.8335 113.361 92.9558 113.32 93.5264 113.32L94.1379 113.32C94.4639 113.32 94.7273 113.361 95.0942 113.361C96.3671 113.361 97.5649 112.138 97.5649 110.464C97.5649 108.793 96.3577 107.57 95.0942 107.57C94.7273 107.57 94.4639 107.611 94.1379 107.611L93.5264 107.611C92.9558 107.611 92.8335 107.57 92.6297 107.57C92.5325 107.57 92.4667 107.617 92.4667 107.749C92.4667 107.88 92.5325 107.927 92.6297 107.927C92.752 107.927 92.868 107.896 93.1032 107.896C93.3164 107.896 93.4449 108.028 93.4449 108.231L93.4449 112.699C93.4449 112.903 93.3164 113.035 93.1032 113.035C92.868 113.035 92.752 113.004 92.6297 113.004C92.5325 113.004 92.4667 113.051 92.4667 113.182C92.4667 113.311 92.5325 113.361 92.6297 113.361ZM94.7681 113.076C94.442 113.076 94.2601 112.897 94.2601 112.571L94.2601 108.36C94.2601 108.034 94.442 107.855 94.7681 107.855L95.0785 107.855C96.2198 107.855 96.5866 109.078 96.5866 110.464C96.5866 111.853 96.2198 113.076 95.0785 113.076L94.7681 113.076Z" fill="rgb(9,9,9)" fill-rule="nonzero" />
			</g>
		</g>
	</g>
	<g id="Rating container">
		<g id="Rating container">
			<g id="Rating">
				<path id="Vector" d="M98.9503 113.361C99.1541 113.361 99.3924 113.32 99.8471 113.32L99.9537 113.32C100.289 113.32 100.574 113.361 100.728 113.361C100.825 113.361 100.891 113.311 100.891 113.182C100.891 113.051 100.825 113.003 100.728 113.003C100.606 113.003 100.493 113.035 100.361 113.035C100.132 113.035 100.045 112.944 100.045 112.815C100.045 112.765 100.06 112.709 100.085 112.633L100.458 111.549C100.518 111.395 100.622 111.323 100.785 111.323L101.91 111.323C102.073 111.323 102.18 111.395 102.236 111.549L102.613 112.627C102.703 112.897 102.565 113.035 102.343 113.035C102.214 113.035 102.073 113.003 101.951 113.003C101.854 113.003 101.788 113.051 101.788 113.182C101.788 113.311 101.854 113.361 101.951 113.361C102.155 113.361 102.28 113.32 102.776 113.32L103.381 113.32C103.835 113.32 103.992 113.361 104.196 113.361C104.293 113.361 104.359 113.311 104.359 113.182C104.359 113.051 104.293 113.003 104.196 113.003C104.074 113.003 103.998 113.035 103.895 113.035C103.682 113.035 103.569 112.887 103.503 112.709L102.174 108.849C102.042 108.457 101.91 108.075 101.797 107.683C101.757 107.545 101.684 107.488 101.593 107.488C101.496 107.488 101.44 107.57 101.39 107.723C101.258 108.15 101.17 108.41 100.982 108.956L99.7499 112.602C99.6527 112.903 99.4802 113.035 99.2858 113.035C99.104 113.035 99.0726 113.003 98.9503 113.003C98.8531 113.003 98.7873 113.051 98.7873 113.182C98.7873 113.311 98.8531 113.361 98.9503 113.361ZM100.835 111.038C100.672 111.038 100.647 110.997 100.697 110.84L101.217 109.282C101.242 109.21 101.277 109.159 101.324 109.159C101.39 109.159 101.43 109.21 101.456 109.291L101.992 110.84C102.051 110.997 102.017 111.038 101.854 111.038L100.835 111.038Z" fill="rgb(9,9,9)" fill-rule="nonzero" />
			</g>
		</g>
	</g>
	<g id="Container">
		<g id="Container">
			<g id="Container">
				<path id="Vector" d="M109.21 113.361C109.414 113.361 109.536 113.32 110.107 113.32L110.759 113.32C111.333 113.32 111.455 113.361 111.659 113.361C111.756 113.361 111.822 113.311 111.822 113.182C111.822 113.051 111.756 113.004 111.659 113.004C111.536 113.004 111.42 113.035 111.185 113.035C110.972 113.035 110.84 112.903 110.84 112.699L110.84 108.231C110.84 108.028 110.972 107.896 111.185 107.896C111.42 107.896 111.536 107.927 111.659 107.927C111.756 107.927 111.822 107.88 111.822 107.749C111.822 107.617 111.756 107.57 111.659 107.57C111.455 107.57 111.333 107.611 110.759 107.611L110.107 107.611C109.536 107.611 109.414 107.57 109.21 107.57C109.113 107.57 109.047 107.617 109.047 107.749C109.047 107.88 109.113 107.927 109.21 107.927C109.332 107.927 109.448 107.896 109.683 107.896C109.897 107.896 110.025 108.028 110.025 108.231L110.025 112.699C110.025 112.903 109.897 113.035 109.683 113.035C109.448 113.035 109.332 113.004 109.21 113.004C109.113 113.004 109.047 113.051 109.047 113.182C109.047 113.311 109.113 113.361 109.21 113.361Z" fill="rgb(9,9,9)" fill-rule="nonzero" />
			</g>
		</g>
	</g>
	<g id="Rating container">
		<g id="Rating container">
			<g id="Rating">
				<path id="Vector" d="M115.573 113.442C116.64 113.442 117.251 112.75 117.251 111.828C117.251 111.094 116.868 110.498 115.89 110.097L115.392 109.893C114.454 109.511 114.021 109.307 114.021 108.67C114.021 108.172 114.438 107.774 115.091 107.774C115.922 107.774 116.339 108.354 116.618 109.031C116.746 109.357 116.762 109.567 116.884 109.567C116.966 109.567 117 109.501 117 109.429C116.975 108.67 117 108.278 117 107.683C117 107.57 116.984 107.529 116.894 107.529C116.828 107.529 116.803 107.56 116.762 107.626C116.674 107.764 116.558 108.002 116.455 108.002C116.288 108.002 116.022 107.488 115.122 107.488C114.178 107.488 113.542 108.15 113.532 108.949C113.526 109.862 114.144 110.382 114.953 110.718L115.799 111.069C116.436 111.329 116.721 111.63 116.721 112.144C116.721 112.756 116.298 113.157 115.614 113.157C114.617 113.157 114.112 112.367 113.858 111.216C113.818 111.028 113.802 110.947 113.689 110.947C113.614 110.947 113.573 111.003 113.573 111.085C113.598 111.828 113.589 112.414 113.573 113.248C113.573 113.361 113.598 113.402 113.68 113.402C113.858 113.402 113.883 112.797 114.072 112.797C114.159 112.797 114.25 112.922 114.429 113.06C114.683 113.239 115.019 113.442 115.573 113.442Z" fill="rgb(9,9,9)" fill-rule="nonzero" />
			</g>
		</g>
	</g>
	<g id="Container">
		<g id="Container">
			<g id="Container">
				<path id="Vector" d="M119.893 113.361C120.097 113.361 120.219 113.32 120.79 113.32L121.445 113.32C122.016 113.32 122.138 113.361 122.342 113.361C122.439 113.361 122.505 113.311 122.505 113.182C122.505 113.051 122.439 113.004 122.342 113.004C122.22 113.004 122.104 113.035 121.869 113.035C121.655 113.035 121.527 112.903 121.527 112.699L121.527 108.14C121.527 107.977 121.608 107.896 121.771 107.896L122.138 107.896C122.903 107.896 123.091 108.727 123.361 109.617C123.386 109.699 123.392 109.771 123.499 109.771C123.581 109.771 123.606 109.699 123.606 109.649C123.59 109.031 123.574 108.517 123.581 107.855C123.581 107.626 123.474 107.57 123.295 107.57C122.985 107.57 122.383 107.611 122.016 107.611L120.219 107.611C119.853 107.611 119.251 107.57 118.94 107.57C118.761 107.57 118.655 107.626 118.655 107.855C118.661 108.517 118.645 109.031 118.63 109.649C118.63 109.699 118.655 109.771 118.736 109.771C118.843 109.771 118.849 109.699 118.874 109.617C119.144 108.727 119.332 107.896 120.097 107.896L120.464 107.896C120.627 107.896 120.709 107.977 120.709 108.14L120.709 112.699C120.709 112.903 120.58 113.035 120.367 113.035C120.132 113.035 120.016 113.004 119.893 113.004C119.796 113.004 119.73 113.051 119.73 113.182C119.73 113.311 119.796 113.361 119.893 113.361Z" fill="rgb(9,9,9)" fill-rule="nonzero" />
			</g>
		</g>
	</g>
	<g id="Container">
		<g id="Container">
			<g id="Container">
				<path id="Vector" d="M125.032 113.361C125.235 113.361 125.358 113.32 125.928 113.32L128.296 113.32C128.663 113.32 129.265 113.361 129.575 113.361C129.754 113.361 129.86 113.305 129.86 113.076C129.854 112.414 129.87 111.9 129.885 111.282C129.885 111.232 129.876 111.16 129.779 111.16C129.672 111.16 129.666 111.232 129.641 111.314C129.371 112.204 129.183 113.035 128.418 113.035L126.907 113.035C126.744 113.035 126.662 112.953 126.662 112.79L126.662 110.708C126.662 110.545 126.744 110.464 126.907 110.464L127.242 110.464C127.869 110.464 127.992 110.661 128.098 111.517C128.117 111.649 128.133 111.771 128.261 111.771C128.343 111.771 128.383 111.712 128.383 111.63C128.362 110.693 128.362 110 128.383 109.062C128.383 108.981 128.343 108.915 128.261 108.915C128.133 108.915 128.117 109.037 128.098 109.169C127.992 110.025 127.869 110.219 127.242 110.219L126.907 110.219C126.744 110.219 126.662 110.138 126.662 109.975L126.662 108.14C126.662 107.977 126.744 107.896 126.907 107.896L128.459 107.896C129.07 107.896 129.224 108.394 129.518 109.373C129.544 109.454 129.559 109.526 129.656 109.526C129.754 109.526 129.763 109.454 129.763 109.404C129.747 108.89 129.732 108.416 129.738 107.855C129.738 107.626 129.631 107.57 129.453 107.57C129.142 107.57 128.703 107.611 128.336 107.611L125.928 107.611C125.358 107.611 125.235 107.57 125.032 107.57C124.934 107.57 124.869 107.617 124.869 107.749C124.869 107.88 124.934 107.927 125.032 107.927C125.154 107.927 125.27 107.896 125.505 107.896C125.718 107.896 125.847 108.028 125.847 108.231L125.847 112.699C125.847 112.903 125.718 113.035 125.505 113.035C125.27 113.035 125.154 113.004 125.032 113.004C124.934 113.004 124.869 113.051 124.869 113.182C124.869 113.311 124.934 113.361 125.032 113.361Z" fill="rgb(9,9,9)" fill-rule="nonzero" />
			</g>
		</g>
	</g>
	<g id="Container">
		<g id="Container">
			<g id="Container">
				<path id="Vector" d="M131.76 113.361C131.964 113.361 132.086 113.32 132.657 113.32L134.453 113.32C135.758 113.32 136.41 112.571 136.41 111.752C136.41 110.978 135.764 110.458 135.112 110.32C135.112 110.32 135.09 110.31 135.09 110.295C135.09 110.279 135.112 110.269 135.112 110.269C135.66 110.091 136.206 109.746 136.206 109.037C136.206 107.977 135.137 107.611 134.086 107.611L132.657 107.611C132.086 107.611 131.964 107.57 131.76 107.57C131.663 107.57 131.597 107.617 131.597 107.749C131.597 107.88 131.663 107.927 131.76 107.927C131.882 107.927 131.998 107.896 132.233 107.896C132.447 107.896 132.575 108.028 132.575 108.231L132.575 112.699C132.575 112.903 132.447 113.035 132.233 113.035C131.998 113.035 131.882 113.004 131.76 113.004C131.663 113.004 131.597 113.051 131.597 113.182C131.597 113.311 131.663 113.361 131.76 113.361ZM133.594 110.178C133.431 110.178 133.39 110.138 133.39 109.975L133.39 108.15C133.39 107.993 133.491 107.896 133.644 107.896L134.174 107.896C134.877 107.896 135.309 108.263 135.309 109.037C135.309 109.812 134.877 110.178 134.174 110.178L133.594 110.178ZM133.644 113.035C133.491 113.035 133.39 112.938 133.39 112.781L133.39 110.627C133.39 110.464 133.431 110.423 133.594 110.423L134.249 110.423C134.942 110.423 135.472 110.834 135.472 111.771C135.472 112.709 134.942 113.035 134.249 113.035L133.644 113.035Z" fill="rgb(9,9,9)" fill-rule="nonzero" />
			</g>
		</g>
	</g>
	<g id="Rating container">
		<g id="Rating container">
			<g id="Rating">
				<path id="Vector" d="M142.338 113.402C142.436 113.402 142.445 113.279 142.445 113.198L142.445 108.231C142.445 108.028 142.577 107.896 142.787 107.896C143.025 107.896 143.138 107.927 143.26 107.927C143.357 107.927 143.423 107.88 143.423 107.749C143.423 107.617 143.357 107.57 143.26 107.57C143.056 107.57 142.934 107.611 142.363 107.611L142.2 107.611C141.63 107.611 141.507 107.57 141.304 107.57C141.206 107.57 141.141 107.617 141.141 107.749C141.141 107.88 141.206 107.927 141.304 107.927C141.426 107.927 141.539 107.896 141.777 107.896C141.987 107.896 142.119 108.028 142.119 108.231L142.119 111.395C142.119 111.517 142.094 111.567 142.037 111.567C141.972 111.567 141.931 111.492 141.899 111.445L139.526 107.855C139.404 107.667 139.2 107.611 138.987 107.611L138.545 107.611C138.375 107.611 138.04 107.586 137.943 107.586C137.836 107.586 137.795 107.676 137.795 107.758C137.795 107.855 137.886 107.905 137.999 107.921C138.284 107.968 138.676 108.1 138.814 108.416C138.849 108.492 138.855 108.564 138.855 108.639L138.855 112.699C138.855 112.903 138.726 113.035 138.513 113.035C138.278 113.035 138.162 113.004 138.04 113.004C137.943 113.004 137.877 113.051 137.877 113.182C137.877 113.311 137.943 113.361 138.04 113.361C138.244 113.361 138.366 113.32 138.936 113.32L139.1 113.32C139.67 113.32 139.792 113.361 139.996 113.361C140.097 113.361 140.162 113.311 140.162 113.182C140.162 113.051 140.097 113.004 139.996 113.004C139.874 113.004 139.761 113.035 139.526 113.035C139.313 113.035 139.181 112.903 139.181 112.699L139.181 109.21C139.181 109.087 139.206 109.037 139.263 109.037C139.328 109.037 139.369 109.112 139.404 109.159L142.078 113.207C142.2 113.392 142.257 113.402 142.338 113.402Z" fill="rgb(9,9,9)" fill-rule="nonzero" />
			</g>
		</g>
	</g>
	<g id="Rating container">
		<g id="Rating container">
			<g id="Rating">
				<path id="Vector" d="M144.564 113.361C144.768 113.361 145.006 113.32 145.461 113.32L145.568 113.32C145.903 113.32 146.188 113.361 146.342 113.361C146.439 113.361 146.505 113.311 146.505 113.182C146.505 113.051 146.439 113.003 146.342 113.003C146.22 113.003 146.107 113.035 145.975 113.035C145.746 113.035 145.658 112.944 145.658 112.815C145.658 112.765 145.674 112.709 145.699 112.633L146.072 111.549C146.132 111.395 146.235 111.323 146.398 111.323L147.524 111.323C147.687 111.323 147.794 111.395 147.85 111.549L148.226 112.627C148.317 112.897 148.179 113.035 147.957 113.035C147.828 113.035 147.687 113.003 147.565 113.003C147.468 113.003 147.402 113.051 147.402 113.182C147.402 113.311 147.468 113.361 147.565 113.361C147.769 113.361 147.894 113.32 148.389 113.32L148.995 113.32C149.449 113.32 149.606 113.361 149.81 113.361C149.907 113.361 149.973 113.311 149.973 113.182C149.973 113.051 149.907 113.003 149.81 113.003C149.688 113.003 149.612 113.035 149.509 113.035C149.296 113.035 149.183 112.887 149.117 112.709L147.787 108.849C147.656 108.457 147.524 108.075 147.411 107.683C147.37 107.545 147.298 107.488 147.207 107.488C147.11 107.488 147.054 107.57 147.004 107.723C146.872 108.15 146.784 108.41 146.596 108.956L145.364 112.602C145.267 112.903 145.094 113.035 144.9 113.035C144.718 113.035 144.687 113.003 144.564 113.003C144.467 113.003 144.401 113.051 144.401 113.182C144.401 113.311 144.467 113.361 144.564 113.361ZM146.449 111.038C146.286 111.038 146.26 110.997 146.311 110.84L146.831 109.282C146.856 109.21 146.891 109.159 146.938 109.159C147.004 109.159 147.044 109.21 147.069 109.291L147.606 110.84C147.665 110.997 147.631 111.038 147.468 111.038L146.449 111.038Z" fill="rgb(9,9,9)" fill-rule="nonzero" />
			</g>
		</g>
	</g>
</svg>
