<svg viewBox="0 0 64.0042 63.9875" xmlns="http://www.w3.org/2000/svg" xmlns:xlink="http://www.w3.org/1999/xlink" width="64.004189" height="63.987488" fill="none" customFrame="#000000">
	<path id="Vector" d="M26.2188 0.425C28.1938 -0.5625 30.5938 0.2375 31.5813 2.2125L34.7063 8.4625L40.0063 9.525C42.4438 10.0125 44.7313 11.0625 46.6938 12.5875L62.4563 24.85C64.2063 26.2125 64.5188 28.725 63.1563 30.4625C61.7938 32.2 59.2813 32.525 57.5438 31.1625L48.5313 24.15L39.5938 28.125L43.7313 31.575C46.6313 33.9875 47.9188 37.825 47.0688 41.5L44.8938 50.9C44.6188 52.075 43.8688 53 42.8813 53.525L53.6938 57.6625C54.2688 57.8875 54.8688 57.9875 55.4813 57.9875L59.0063 57.9875C60.6688 57.9875 62.0063 59.325 62.0063 60.9875C62.0063 62.65 60.6688 63.9875 59.0063 63.9875L55.4813 63.9875C54.1313 63.9875 52.8063 63.7375 51.5438 63.2625L7.51877 46.4125C6.08127 45.8625 4.76877 45.0125 3.66877 43.9125L0.881273 41.125C-0.293727 39.95 -0.293727 38.05 0.881273 36.8875C2.05627 35.725 3.95627 35.7125 5.11877 36.8875L7.91877 39.6875C8.41877 40.1875 9.00627 40.575 9.66877 40.825L12.4688 41.9C12.3688 41.7 12.2813 41.5 12.2063 41.2875C11.5063 39.1875 12.6438 36.925 14.7313 36.225L24.0063 33.1125L24.0063 26.4625C24.0063 23.4375 25.7188 20.6625 28.4313 19.3125L34.0813 16.4875L33.1438 16.3C30.7188 15.8125 28.6563 14.2375 27.5563 12.0375L24.4313 5.7875C23.4438 3.8125 24.2438 1.4125 26.2188 0.425ZM17.3813 43.7625L37.2563 51.375C36.9938 50.675 36.9313 49.8875 37.1188 49.1L39.2938 39.7C39.4688 38.9625 39.2063 38.2 38.6313 37.7125L32.0313 32.2125L32.0313 34.5625C32.0313 37.15 30.3813 39.4375 27.9313 40.25L17.3813 43.7625ZM54.0063 0C55.5976 1.27676e-15 57.1237 0.632141 58.2489 1.75736C59.3741 2.88258 60.0063 4.4087 60.0063 6C60.0063 7.5913 59.3741 9.11742 58.2489 10.2426C57.1237 11.3679 55.5976 12 54.0063 12C52.415 12 50.8888 11.3679 49.7636 10.2426C48.6384 9.11742 48.0063 7.5913 48.0063 6C48.0063 4.4087 48.6384 2.88258 49.7636 1.75736C50.8888 0.632141 52.415 1.4988e-15 54.0063 0Z" fill="rgb(216,174,94)" fill-rule="nonzero" />
</svg>
