<svg viewBox="0 0 32.0006 31.8828" xmlns="http://www.w3.org/2000/svg" xmlns:xlink="http://www.w3.org/1999/xlink" width="32.000641" height="31.882812" fill="none" customFrame="#000000">
	<path id="Vector" d="M16 0C7.16352 0 0 7.16352 0 16C0 23.5034 5.16608 29.7997 12.135 31.529L12.135 20.8896L8.83584 20.8896L8.83584 16L12.135 16L12.135 13.8931C12.135 8.44736 14.5997 5.9232 19.9462 5.9232C20.96 5.9232 22.7091 6.12224 23.4246 6.32064L23.4246 10.7526C23.047 10.713 22.391 10.6931 21.5763 10.6931C18.953 10.6931 17.9392 11.687 17.9392 14.2707L17.9392 16L23.1654 16L22.2675 20.8896L17.9392 20.8896L17.9392 31.8829C25.8618 30.9261 32.0006 24.1805 32.0006 16C32 7.16352 24.8365 0 16 0Z" fill="rgb(216,174,94)" fill-rule="nonzero" />
</svg>
