<svg viewBox="0 0 32 31.9998" xmlns="http://www.w3.org/2000/svg" xmlns:xlink="http://www.w3.org/1999/xlink" width="32.000000" height="31.999756" fill="none" customFrame="#000000">
	<g id="Group 3">
		<path id="Vector" d="M32 6.14385C32 2.75296 29.3064 0 25.9901 0L6.00987 0C2.69362 0 0 2.75296 0 6.14385L0 25.8559C0 29.2459 2.69362 31.9997 6.00989 31.9997L25.9901 31.9997C29.3064 31.9997 32 29.2459 32 25.8559L32 6.14385Z" fill="rgb(216,174,94)" fill-rule="evenodd" />
		<path id="Vector" d="M0.00109863 19.8794L15.9832 19.8794L15.9832 31.9993L0.00111035 31.9993L0.00109863 19.8794Z" fill="rgb(216,174,94)" fill-rule="evenodd" />
		<g id="Text input">
			<path id="Vector" d="M14.5433 21.1807L11.966 21.178L11.966 18.0269C11.966 17.3536 12.2214 17.0032 12.7849 16.9232L14.5433 16.9232C15.7974 16.9232 16.6086 17.7316 16.6086 19.0401C16.6086 20.384 15.8179 21.1794 14.5433 21.1807ZM11.966 12.6814L11.966 11.852C11.966 11.1262 12.2663 10.781 12.9248 10.7364L14.2443 10.7364C15.3751 10.7364 16.0528 11.428 16.0528 12.5869C16.0528 13.4689 15.5881 14.4991 14.2853 14.4991L11.966 14.4991L11.966 12.6814ZM17.8344 15.826L17.3684 15.5583L17.7753 15.2026C18.2489 14.7865 19.0422 13.8508 19.0422 12.2365C19.0422 9.76389 17.1669 8.16929 14.2648 8.16929L10.9532 8.16929L10.9532 8.16797L10.5759 8.16797C9.71589 8.20078 9.02662 8.91606 9.01764 9.80064L9.01764 23.8305L14.3303 23.8305C17.5558 23.8305 19.6378 22.0351 19.6378 19.254C19.6378 17.7566 18.9652 16.4769 17.8344 15.826Z" fill="rgb(255,255,255)" fill-rule="nonzero" />
			<path id="Vector" d="M21.0214 21.8925C21.0214 20.8207 21.8667 19.9536 22.9083 19.9536C23.9525 19.9536 24.8019 20.8207 24.8019 21.8925C24.8019 22.9629 23.9525 23.8313 22.9083 23.8313C21.8667 23.8313 21.0214 22.9629 21.0214 21.8925Z" fill="rgb(244,244,244)" fill-rule="evenodd" />
		</g>
	</g>
</svg>
